<?xml version="1.0" encoding="UTF-8" standalone="no"?><!DOCTYPE svg PUBLIC "-//W3C//DTD SVG 1.1//EN" "http://www.w3.org/Graphics/SVG/1.1/DTD/svg11.dtd"><svg width="100%" height="100%" viewBox="0 0 99 99" version="1.1" xmlns="http://www.w3.org/2000/svg" xmlns:xlink="http://www.w3.org/1999/xlink" xml:space="preserve" xmlns:serif="http://www.serif.com/" style="fill-rule:evenodd;clip-rule:evenodd;stroke-linejoin:round;stroke-miterlimit:2;"><clipPath id="_clip1"><rect id="github-142-svgrepo-com.svg" x="0" y="0" width="99" height="99"/></clipPath><g clip-path="url(#_clip1)"><g id="Page-1"><g id="Dribbble-Light-Preview"><g id="icons"><path id="github---142-" serif:id="github-[#142]" d="M49.5,0c27.339,0 49.5,22.72 49.5,50.752c0,22.419 -14.167,41.437 -33.823,48.154c-2.51,0.5 -3.401,-1.084 -3.401,-2.435c0,-1.674 0.059,-7.138 0.059,-13.93c0,-4.732 -1.584,-7.821 -3.361,-9.395c11.024,-1.257 22.607,-5.549 22.607,-25.042c0,-5.544 -1.921,-10.068 -5.098,-13.622c0.514,-1.282 2.212,-6.445 -0.486,-13.435c0,0 -4.148,-1.361 -13.597,5.203c-3.955,-1.124 -8.192,-1.688 -12.4,-1.708c-4.207,0.02 -8.44,0.584 -12.39,1.708c-9.459,-6.564 -13.617,-5.203 -13.617,-5.203c-2.688,6.99 -0.99,12.153 -0.48,13.435c-3.163,3.554 -5.099,8.078 -5.099,13.622c0,19.444 11.558,23.8 22.552,25.082c-1.415,1.267 -2.697,3.504 -3.143,6.786c-2.821,1.297 -9.989,3.539 -14.404,-4.217c-0,-0 -2.619,-4.876 -7.589,-5.232c0,-0 -4.826,-0.065 -0.336,3.084c-0,-0 3.242,1.559 5.494,7.424c0,0 2.906,9.059 16.677,5.99c0.024,4.242 0.069,8.242 0.069,9.45c-0,1.341 -0.911,2.91 -3.381,2.44c-19.671,-6.707 -33.853,-25.735 -33.853,-48.159c0,-28.032 22.166,-50.752 49.5,-50.752"/></g></g></g></g></svg>
